<svg xmlns="http://www.w3.org/2000/svg" viewBox="0 0 64 64">
  <defs>
    <linearGradient id="bgGrad" x1="0%" y1="0%" x2="100%" y2="100%">
      <stop offset="0%" style="stop-color:#0c4a6e"/>
      <stop offset="100%" style="stop-color:#0ea5e9"/>
    </linearGradient>
    <filter id="shadow" x="-20%" y="-20%" width="140%" height="140%">
      <feDropShadow dx="0" dy="2" stdDeviation="2" flood-color="#0ea5e9" flood-opacity="0.3"/>
    </filter>
  </defs>
  
  <!-- Background -->
  <rect width="64" height="64" rx="16" fill="url(#bgGrad)" filter="url(#shadow)"/>
  
  <!-- S -->
  <path d="M 14 22 C 11 22, 10 26, 14 28 L 20 30 C 24 31, 24 35, 20 36 L 14 38 C 10 40, 11 44, 14 44 C 17 44, 18 42, 17 40 L 15 39 C 22 39, 22 27, 15 26 L 17 25 C 20 24, 18 22, 14 22Z" 
        fill="white"/>
  
  <!-- A -->
  <path d="M 26 44 L 32 18 L 38 44 L 34 44 L 33 38 L 31 38 L 30 44 Z M 32 26 L 29 34 L 35 34 Z" 
        fill="white"/>
  
  <!-- K -->
  <path d="M 40 18 L 44 18 L 44 30 L 52 18 L 56 18 L 48 31 L 56 44 L 52 44 L 44 32 L 44 44 L 40 44 Z" 
        fill="white"/>
  
  <!-- AI Dot -->
  <circle cx="54" cy="14" r="3" fill="#7dd3fc"/>
</svg>
